<?xml version="1.0" encoding="UTF-8" standalone="no" ?>
<!DOCTYPE svg PUBLIC "-//W3C//DTD SVG 1.1//EN" "http://www.w3.org/Graphics/SVG/1.1/DTD/svg11.dtd">
<svg xmlns="http://www.w3.org/2000/svg" xmlns:xlink="http://www.w3.org/1999/xlink" version="1.1" width="1080" height="1080" viewBox="0 0 1080 1080" xml:space="preserve">
<desc>Created with Fabric.js 5.2.4</desc>
<defs>
</defs>
<g transform="matrix(1 0 0 1 540 540)" id="4531b6fe-6e83-4626-837a-ad3f422e6cd1"  >
</g>
<g transform="matrix(1 0 0 1 540 540)" id="293b7923-e1aa-4cc2-89b7-a02c0357a8f4"  >
<rect style="stroke: none; stroke-width: 1; stroke-dasharray: none; stroke-linecap: butt; stroke-dashoffset: 0; stroke-linejoin: miter; stroke-miterlimit: 4; fill: rgb(255,255,255); fill-rule: nonzero; opacity: 1; visibility: hidden;" vector-effect="non-scaling-stroke"  x="-540" y="-540" rx="0" ry="0" width="1080" height="1080" />
</g>
<g transform="matrix(15.14 0 0 15.14 539.96 539.96)" id="103c19d2-2bf8-401e-a1ff-c8ae65cebad3"  >
<circle style="stroke: rgb(0,0,0); stroke-width: 0; stroke-dasharray: none; stroke-linecap: butt; stroke-dashoffset: 0; stroke-linejoin: miter; stroke-miterlimit: 4; fill: rgb(255,255,255); fill-rule: nonzero; opacity: 1;" vector-effect="non-scaling-stroke"  cx="0" cy="0" r="35" />
</g>
<g transform="matrix(0.09 0 0 -0.09 562.3 547.8)"  >
<path style="stroke: none; stroke-width: 1; stroke-dasharray: none; stroke-linecap: butt; stroke-dashoffset: 0; stroke-linejoin: miter; stroke-miterlimit: 4; fill: rgb(0,0,0); fill-rule: nonzero; opacity: 1;" vector-effect="non-scaling-stroke"  transform=" translate(-6081.16, -6244.08)" d="M 5005 11268 C 4994 11262 4876 11178 4742 11083 C 4608 10987 4462 10883 4417 10852 C 4372 10822 4274 10750 4199 10694 L 4063 10591 L 3994 10659 C 3870 10780 3689 10850 3500 10849 L 3405 10849 L 3485 10820 C 3694 10742 3844 10636 3924 10507 C 4020 10351 4050 10259 4050 10116 C 4050 9956 4011 9853 3912 9755 C 3826 9669 3700 9604 3561 9575 C 3420 9546 3304 9562 3161 9632 C 2997 9713 2890 9855 2856 10039 C 2821 10224 2851 10384 2947 10532 C 3028 10656 3150 10749 3308 10806 L 3375 10830 L 3309 10825 C 3056 10805 2833 10600 2767 10330 C 2711 10099 2754 9872 2883 9715 C 3020 9547 3222 9451 3440 9450 C 3772 9449 4071 9639 4159 9906 C 4209 10059 4206 10242 4151 10403 L 4121 10491 L 4255 10578 C 4329 10626 4428 10688 4476 10715 C 4562 10764 4899 10985 4964 11035 C 4982 11049 5001 11060 5007 11060 C 5016 11060 5060 10972 5144 10787 C 5164 10744 5180 10706 5180 10703 C 5180 10701 5200 10648 5224 10587 C 5265 10481 5354 10220 5370 10155 C 5374 10139 5390 10080 5405 10026 C 5437 9908 5480 9714 5480 9689 C 5480 9676 5468 9670 5428 9665 C 4874 9594 4336 9401 3970 9144 C 3872 9075 3800 9016 3800 9004 C 3800 9001 3812 9007 3828 9018 C 3843 9029 3893 9060 3940 9088 C 4349 9329 4843 9474 5431 9526 L 5506 9532 L 5520 9446 C 5528 9394 5538 9361 5544 9363 C 5550 9365 5570 9405 5588 9452 L 5622 9537 L 5754 9543 C 5959 9553 6250 9526 6495 9475 C 6801 9411 7165 9259 7418 9088 C 7510 9026 7677 8883 7751 8803 C 7837 8709 7933 8559 7916 8543 C 7913 8539 7882 8533 7847 8529 C 7734 8514 7557 8491 7435 8475 C 7369 8466 7281 8455 7240 8450 C 7199 8445 7113 8434 7050 8425 C 6987 8417 6883 8403 6820 8395 C 6757 8388 6651 8374 6585 8365 C 6519 8356 6431 8344 6390 8339 C 6349 8333 6266 8323 6205 8315 C 6145 8307 6039 8294 5970 8285 C 5901 8276 5814 8265 5775 8260 C 5737 8255 5651 8244 5585 8235 C 5519 8226 5416 8213 5355 8205 C 5149 8178 5005 8160 4890 8145 C 4827 8136 4741 8125 4700 8120 C 4361 8077 4259 8063 4252 8055 C 4249 8052 4251 8010 4258 7962 C 4264 7914 4277 7806 4287 7723 L 4305 7570 L 4338 7570 C 4356 7570 4403 7575 4441 7582 C 4488 7589 4514 7590 4521 7583 C 4530 7574 4537 7522 4571 7225 C 4577 7170 4585 7122 4588 7119 C 4592 7116 4640 7118 4695 7125 C 4750 7131 4798 7134 4802 7130 C 4807 7127 4815 7075 4821 7015 C 4827 6954 4834 6903 4836 6901 C 4838 6899 4885 6902 4942 6909 C 4998 6915 5047 6917 5051 6913 C 5058 6906 5079 6759 5080 6715 C 5081 6685 5096 6681 5170 6691 C 5244 6701 5421 6723 5555 6740 C 5951 6790 5974 6794 5964 6824 C 5955 6852 5941 7025 5948 7032 C 5952 7036 5998 7044 6050 7050 C 6102 7056 6148 7064 6151 7068 C 6155 7072 6152 7125 6145 7185 C 6130 7310 6133 7320 6189 7320 C 6224 7320 6340 7336 6346 7342 C 6347 7344 6342 7399 6334 7465 C 6326 7531 6315 7626 6310 7675 C 6304 7725 6297 7777 6294 7791 C 6289 7817 6291 7818 6352 7828 C 6387 7834 6471 7846 6540 7855 C 6609 7863 6679 7873 6697 7876 C 6735 7882 6735 7881 6750 7745 C 6773 7529 6788 7408 6793 7404 C 6796 7401 6844 7404 6900 7410 C 6955 7417 7004 7419 7008 7415 C 7012 7412 7020 7361 7026 7304 C 7032 7246 7041 7195 7046 7190 C 7051 7186 7099 7188 7154 7196 C 7209 7204 7256 7208 7258 7205 C 7261 7202 7269 7150 7276 7089 C 7283 7028 7291 6975 7295 6972 C 7298 6969 7342 6972 7393 6979 C 7488 6991 7615 7008 7825 7035 C 8040 7062 8104 7071 8138 7076 L 8171 7081 L 8163 7153 C 8159 7193 8155 7247 8155 7275 L 8155 7324 L 8228 7335 C 8268 7341 8303 7344 8305 7341 C 8313 7334 8311 7250 8300 7160 C 8263 6852 8138 6554 7964 6361 C 7924 6317 7913 6310 7880 6310 C 7778 6310 7625 6257 7509 6181 C 7404 6112 7302 6014 7206 5891 L 7124 5786 L 7050 5762 C 6837 5695 6509 5626 6275 5601 C 5870 5556 5554 5561 5210 5616 C 5000 5650 4941 5663 4735 5727 C 4637 5757 4453 5825 4385 5855 C 4358 5867 4313 5887 4285 5899 C 4222 5927 4140 5969 4120 5984 C 4112 5991 4092 6002 4075 6010 C 4059 6018 3993 6064 3930 6112 C 3749 6248 3609 6394 3501 6559 L 3439 6654 L 3507 6672 C 3643 6709 3711 6752 3766 6835 C 3876 7000 3879 7252 3772 7325 C 3742 7345 3723 7350 3670 7350 C 3624 7350 3609 7347 3620 7340 C 3628 7335 3643 7330 3653 7330 C 3688 7330 3739 7298 3760 7265 C 3815 7176 3750 6905 3652 6819 C 3591 6765 3515 6738 3425 6736 C 3354 6735 3339 6738 3291 6765 C 3216 6807 3174 6861 3129 6980 C 3110 7028 3110 7256 3128 7288 L 3141 7311 L 3193 7267 L 3245 7222 L 3241 7127 C 3237 7017 3249 6971 3290 6937 C 3358 6879 3456 6901 3510 6987 C 3549 7048 3560 7089 3560 7173 C 3560 7214 3566 7253 3575 7270 C 3589 7296 3589 7299 3575 7294 C 3561 7288 3551 7259 3535 7182 C 3527 7143 3520 7144 3412 7201 C 3247 7289 3137 7402 3056 7567 C 2948 7787 2932 8016 3007 8240 C 3055 8381 3120 8480 3240 8593 C 3305 8654 3342 8679 3432 8723 C 3591 8800 3654 8815 3825 8814 C 3965 8813 4029 8803 4140 8763 C 4241 8726 4381 8637 4458 8561 C 4480 8539 4500 8524 4503 8526 C 4511 8534 4482 8597 4445 8654 C 4353 8797 4207 8907 4045 8955 C 3973 8977 3809 8980 3705 8961 C 3315 8890 3021 8639 2897 8270 C 2801 7987 2852 7663 3031 7417 L 3082 7347 L 3069 7291 C 3061 7258 3055 7185 3056 7115 C 3056 7007 3059 6988 3084 6925 C 3136 6797 3210 6717 3310 6681 C 3327 6675 3349 6647 3379 6594 C 3499 6377 3693 6163 3914 6003 C 4048 5906 4273 5785 4450 5715 C 4502 5694 4547 5676 4549 5674 C 4551 5672 4524 5640 4489 5603 C 4410 5520 4385 5485 4376 5444 C 4367 5404 4387 5382 4439 5374 C 4505 5363 4508 5357 4461 5304 C 4401 5236 4336 5136 4286 5033 C 4235 4931 4190 4809 4190 4775 C 4190 4751 4265 4666 4329 4618 L 4363 4592 L 4351 4464 C 4344 4393 4336 4332 4332 4329 C 4328 4325 4281 4308 4227 4290 C 4173 4272 4131 4256 4134 4253 C 4142 4245 4317 4270 4469 4300 C 4549 4317 4627 4330 4642 4330 C 4679 4330 4702 4303 4727 4228 C 4739 4193 4774 4093 4805 4005 C 4882 3788 4899 3736 4900 3727 C 4900 3722 4881 3720 4858 3722 L 4817 3725 L 4753 3910 C 4719 4012 4680 4124 4668 4160 C 4657 4196 4642 4230 4636 4237 C 4626 4248 4489 4225 4290 4180 C 4271 4176 4239 4169 4220 4164 C 4191 4158 4173 4150 4132 4124 C 4128 4122 4142 4076 4257 3727 L 4352 3440 L 4381 3440 L 4411 3440 L 4408 3382 L 4405 3325 L 4362 3326 C 4338 3326 4313 3333 4305 3341 C 4297 3349 4246 3486 4192 3645 C 4137 3805 4076 3974 4056 4022 C 4036 4070 4020 4125 4020 4144 C 4020 4164 4016 4180 4010 4180 C 3990 4180 4001 4102 4039 3985 C 4102 3789 4177 3550 4200 3470 C 4236 3347 4243 3331 4272 3303 C 4296 3280 4311 3275 4368 3272 L 4436 3268 L 4460 3223 C 4511 3126 4637 3035 4783 2989 L 4851 2967 L 4845 2926 C 4836 2873 4816 2800 4790 2726 C 4770 2669 4769 2662 4783 2594 C 4802 2499 4793 2452 4746 2400 C 4714 2365 4710 2354 4710 2307 C 4710 2230 4745 2028 4765 1989 C 4775 1970 4791 1945 4801 1932 C 4810 1920 4821 1890 4825 1867 C 4841 1767 4909 1602 4967 1521 C 5108 1328 5324 1210 5538 1210 C 5656 1210 5745 1235 5828 1290 C 5987 1396 6064 1619 6015 1830 C 5998 1902 5971 1980 5958 1994 C 5954 2000 5950 2013 5950 2024 C 5950 2037 5961 2023 5978 1989 C 6015 1914 6128 1772 6192 1718 C 6351 1586 6475 1534 6658 1523 C 6873 1510 7060 1602 7136 1758 C 7161 1809 7164 1825 7164 1920 C 7163 2037 7147 2086 7076 2185 C 7034 2243 7033 2250 7060 2250 C 7084 2250 7085 2269 7065 2325 C 7043 2385 7047 2422 7078 2466 C 7153 2573 7166 2623 7144 2716 C 7125 2798 7129 2835 7163 2913 L 7189 2971 L 7219 2955 C 7262 2933 7356 2926 7410 2940 C 7443 2949 7470 2967 7513 3011 C 7565 3064 7570 3073 7570 3113 C 7570 3155 7549 3213 7529 3225 C 7513 3236 7519 3270 7547 3318 C 7588 3390 7584 3388 7642 3379 C 7758 3361 7898 3406 7978 3488 C 8081 3595 8164 3757 8185 3898 C 8189 3921 8195 3940 8199 3940 C 8212 3940 8240 3803 8247 3706 C 8254 3596 8238 3458 8206 3342 C 8184 3266 8183 3258 8199 3252 C 8208 3248 8276 3245 8350 3245 C 8461 3245 8497 3249 8555 3267 C 8906 3378 9199 3701 9338 4130 C 9376 4246 9395 4340 9412 4488 C 9423 4587 9422 4619 9407 4738 C 9390 4865 9363 4988 9343 5024 C 9336 5037 9324 5032 9270 4998 C 9130 4909 8973 4850 8877 4850 C 8770 4850 8629 4903 8537 4977 C 8471 5030 8474 5051 8548 5079 C 8580 5090 8615 5110 8627 5122 C 8685 5187 8683 5302 8621 5446 C 8599 5497 8510 5595 8492 5589 C 8486 5586 8490 5562 8501 5527 C 8520 5468 8550 5286 8550 5232 C 8550 5185 8520 5170 8430 5170 C 8342 5170 8278 5189 8205 5235 C 8105 5299 8046 5393 8068 5458 C 8079 5493 8155 5544 8228 5565 C 8303 5587 8407 5603 8431 5597 C 8443 5594 8450 5596 8447 5603 C 8442 5619 8380 5638 8329 5639 C 8278 5640 8142 5613 8123 5598 C 8103 5582 8092 5597 8069 5668 C 8036 5770 8031 6021 8059 6146 C 8070 6196 8084 6248 8089 6262 C 8095 6279 8095 6291 8088 6298 C 8081 6305 8099 6337 8145 6402 C 8324 6650 8429 6990 8432 7330 C 8432 7418 8428 7498 8420 7533 C 8411 7573 8410 7594 8417 7601 C 8423 7607 8455 7614 8489 7617 C 8559 7624 8556 7616 8540 7745 C 8535 7789 8524 7885 8515 7959 C 8506 8035 8503 8097 8508 8102 C 8513 8107 8558 8117 8609 8124 C 8660 8132 8704 8141 8708 8144 C 8711 8148 8708 8199 8702 8258 C 8673 8516 8660 8624 8656 8628 C 8653 8630 8592 8625 8519 8616 C 8446 8607 8384 8603 8380 8607 C 8377 8612 8366 8640 8356 8670 C 8300 8836 8175 9005 8025 9114 C 7849 9243 7677 9300 7462 9300 L 7350 9300 L 7256 9354 C 7000 9502 6682 9608 6300 9672 C 6197 9689 6131 9692 5918 9693 L 5661 9693 L 5667 9815 C 5674 9963 5668 9991 5583 10220 C 5476 10506 5381 10726 5258 10970 C 5166 11151 5118 11226 5071 11257 C 5032 11283 5032 11283 5005 11268 z M 7705 9158 C 7916 9090 8092 8941 8202 8740 C 8228 8692 8260 8611 8260 8594 C 8260 8585 8129 8560 8084 8560 C 8078 8560 8058 8588 8041 8623 C 7937 8822 7788 8988 7546 9176 L 7519 9198 L 7567 9192 C 7593 9190 7656 9174 7705 9158 z M 8251 8290 C 8255 8271 8262 8218 8265 8173 L 8272 8092 L 8219 8081 C 8189 8076 8141 8068 8111 8064 L 8057 8058 L 8064 7991 C 8068 7955 8074 7900 8077 7869 L 8083 7813 L 7972 7800 C 7867 7787 7861 7785 7865 7766 C 7870 7745 7890 7575 7890 7553 C 7890 7543 7843 7533 7718 7516 C 7697 7514 7678 7515 7675 7519 C 7673 7524 7666 7572 7660 7626 C 7654 7681 7647 7732 7645 7740 C 7641 7753 7660 7758 7748 7770 L 7855 7785 L 7853 7835 C 7851 7914 7840 8005 7831 8019 C 7825 8029 7810 8029 7764 8021 C 7732 8016 7685 8010 7660 8008 L 7615 8005 L 7607 8065 C 7603 8098 7596 8151 7592 8182 C 7585 8227 7586 8240 7598 8245 C 7626 8255 7794 8270 7801 8263 C 7805 8259 7814 8204 7821 8142 L 7833 8029 L 7869 8034 C 7889 8037 7932 8042 7966 8045 C 8057 8055 8054 8050 8041 8180 C 8034 8242 8032 8295 8035 8299 C 8042 8306 8195 8328 8225 8326 C 8239 8325 8246 8315 8251 8290 z M 6049 7973 C 6065 7864 6068 7810 6058 7804 C 6053 7801 6016 7794 5977 7789 C 5844 7773 5847 7774 5855 7724 C 5872 7609 5876 7539 5866 7531 C 5853 7521 5669 7500 5658 7507 C 5653 7509 5650 7530 5650 7553 C 5650 7576 5645 7626 5640 7664 C 5628 7746 5628 7746 5714 7755 C 5748 7758 5792 7763 5812 7766 L 5849 7772 L 5844 7818 C 5841 7844 5834 7896 5829 7934 C 5824 7972 5823 8007 5828 8012 C 5837 8021 5935 8037 5997 8039 L 6038 8040 L 6049 7973 z M 7613 7993 C 7623 7977 7641 7767 7633 7759 C 7625 7752 7431 7726 7425 7732 C 7423 7734 7416 7786 7408 7848 C 7399 7926 7397 7964 7405 7968 C 7410 7972 7451 7980 7495 7986 C 7603 8001 7608 8001 7613 7993 z M 5608 7908 C 5614 7868 5621 7815 5622 7790 L 5625 7745 L 5583 7738 C 5561 7735 5511 7730 5474 7728 L 5405 7725 L 5399 7785 C 5396 7818 5389 7870 5385 7901 L 5378 7957 L 5442 7967 C 5476 7973 5526 7978 5551 7979 L 5597 7980 L 5608 7908 z M 5413 7681 C 5417 7665 5422 7611 5426 7561 C 5432 7488 5430 7470 5419 7466 C 5394 7459 5235 7443 5224 7447 C 5217 7449 5209 7491 5204 7543 C 5190 7696 5184 7683 5265 7696 C 5304 7703 5351 7708 5371 7709 C 5404 7710 5408 7707 5413 7681 z M 5665 7453 C 5680 7335 5686 7258 5678 7254 C 5662 7244 5478 7228 5470 7236 C 5463 7245 5437 7461 5444 7467 C 5447 7470 5608 7495 5647 7499 C 5653 7500 5661 7479 5665 7453 z M 3480 7100 C 3513 7100 3520 7079 3500 7041 C 3474 6989 3437 6959 3393 6953 C 3316 6943 3277 7010 3294 7123 L 3301 7168 L 3383 7134 C 3428 7116 3472 7100 3480 7100 z M 7984 6222 C 7986 6218 7982 6190 7974 6160 C 7954 6082 7946 5908 7958 5810 C 7964 5763 7981 5688 7995 5642 L 8021 5559 L 8000 5516 C 7989 5492 7978 5452 7975 5426 C 7972 5400 7957 5356 7941 5327 C 7926 5298 7907 5265 7901 5252 L 7889 5229 L 7860 5250 C 7826 5274 7799 5275 7760 5255 C 7727 5238 7696 5186 7704 5163 C 7709 5152 7718 5157 7744 5184 C 7783 5226 7801 5229 7830 5198 C 7856 5170 7855 5155 7822 5095 C 7788 5032 7763 5029 7735 5085 C 7724 5107 7713 5127 7712 5130 C 7710 5133 7700 5124 7689 5111 C 7651 5065 7671 4998 7733 4964 C 7749 4955 7748 4947 7718 4867 C 7700 4819 7682 4780 7678 4780 C 7675 4780 7643 4793 7608 4809 C 7573 4825 7510 4844 7468 4851 C 7398 4863 7383 4862 7293 4842 C 7239 4830 7164 4805 7125 4786 C 7087 4767 7054 4753 7052 4754 C 7051 4756 7043 4788 7035 4826 C 7014 4925 7016 5124 7039 5256 C 7127 5753 7485 6178 7855 6223 C 7913 6230 7979 6230 7984 6222 z M 4795 5535 C 4952 5508 5176 5458 5245 5434 C 5268 5426 5295 5420 5307 5420 C 5318 5420 5367 5407 5416 5391 C 5465 5375 5546 5350 5595 5335 C 5777 5279 5818 5264 5985 5190 C 5996 5185 6030 5171 6060 5160 C 6156 5122 6274 5059 6350 5004 C 6417 4955 6437 4934 6392 4960 C 6332 4994 5952 5170 5938 5170 C 5933 5170 5914 5177 5897 5185 C 5823 5219 5511 5330 5486 5330 C 5476 5330 5429 5343 5381 5359 C 5334 5375 5228 5402 5145 5419 C 5063 5436 4979 5455 4960 5460 C 4897 5475 4586 5530 4558 5530 C 4552 5530 4555 5539 4565 5550 C 4579 5565 4592 5569 4614 5565 C 4631 5562 4713 5549 4795 5535 z M 6710 5501 C 6710 5460 6713 5462 6635 5440 C 6619 5435 6580 5424 6550 5415 C 6433 5380 6350 5367 6197 5363 L 6039 5359 L 5972 5402 L 5906 5445 L 5946 5452 C 5967 5456 6009 5459 6039 5459 C 6134 5460 6440 5499 6625 5534 C 6664 5541 6698 5545 6703 5543 C 6707 5541 6710 5522 6710 5501 z M 4620 5475 C 4803 5448 4885 5433 5055 5395 C 5282 5345 5405 5312 5525 5270 C 5575 5253 5638 5232 5665 5223 C 5811 5178 5898 5146 6035 5087 C 6158 5034 6420 4897 6420 4885 C 6420 4857 6391 4866 6245 4940 C 6163 4982 6037 5040 5965 5069 C 5894 5098 5822 5127 5805 5135 C 5789 5142 5757 5154 5735 5161 C 5713 5168 5690 5177 5685 5182 C 5679 5186 5656 5193 5635 5199 C 5613 5204 5548 5223 5490 5240 C 5351 5281 5056 5356 5000 5365 C 4975 5369 4939 5376 4920 5380 C 4876 5391 4750 5413 4603 5436 C 4498 5452 4475 5462 4497 5483 C 4505 5492 4509 5492 4620 5475 z M 6960 5388 C 6959 5364 6935 5333 6836 5229 C 6747 5134 6725 5123 6760 5190 C 6771 5211 6943 5398 6953 5399 C 6957 5400 6960 5394 6960 5388 z M 6700 5248 C 6700 5241 6692 5204 6682 5166 C 6665 5098 6664 5098 6615 5079 C 6588 5069 6533 5053 6492 5044 L 6418 5027 L 6347 5098 L 6277 5168 L 6346 5175 C 6455 5185 6569 5210 6624 5235 C 6683 5262 6700 5265 6700 5248 z M 6873 5154 C 6816 5088 6746 4988 6729 4949 C 6717 4920 6697 4911 6685 4931 C 6675 4946 6778 5096 6852 5175 C 6898 5225 6916 5238 6918 5226 C 6920 5217 6900 5184 6873 5154 z M 8420 5027 C 8439 5004 8487 4953 8525 4914 C 8653 4785 8836 4720 8987 4750 C 9083 4768 9167 4796 9218 4826 C 9243 4841 9266 4848 9271 4843 C 9275 4839 9287 4775 9296 4701 C 9311 4578 9311 4557 9296 4432 C 9281 4313 9264 4231 9231 4125 C 9193 4000 9089 3806 9005 3700 C 8844 3499 8682 3387 8487 3341 C 8443 3330 8303 3324 8295 3332 C 8293 3333 8297 3358 8305 3385 C 8312 3413 8323 3483 8331 3542 C 8342 3636 8342 3662 8326 3763 C 8317 3826 8304 3893 8298 3911 C 8276 3978 8226 4096 8203 4132 C 8190 4153 8180 4172 8180 4175 C 8180 4183 8086 4322 8043 4378 C 8025 4402 8010 4428 8010 4435 C 8010 4443 8034 4498 8063 4557 C 8092 4616 8126 4690 8139 4720 C 8152 4750 8171 4793 8180 4815 C 8243 4954 8259 4990 8276 5033 L 8295 5081 L 8340 5075 C 8377 5070 8391 5062 8420 5027 z M 4381 4884 C 4490 4770 4721 4660 4967 4606 C 5006 4598 5097 4585 5169 4578 C 5278 4568 5300 4563 5298 4550 C 5293 4527 5092 4532 4965 4559 C 4785 4598 4589 4671 4476 4744 C 4392 4798 4320 4868 4320 4896 C 4320 4930 4341 4926 4381 4884 z M 4320 4810 C 4320 4790 4476 4682 4565 4640 C 4705 4574 4894 4515 4990 4508 C 5006 4507 5020 4501 5020 4495 C 5020 4479 5210 4401 5397 4341 C 5453 4323 5506 4299 5516 4289 C 5531 4272 5530 4260 5500 4098 C 5482 4003 5462 3896 5455 3860 C 5424 3696 5388 3534 5379 3525 C 5373 3519 5361 3525 5345 3540 C 5323 3562 5322 3569 5330 3600 C 5335 3619 5352 3689 5366 3755 C 5380 3821 5398 3902 5405 3935 C 5448 4128 5463 4221 5455 4229 C 5449 4234 5369 4256 5275 4279 C 5182 4302 5080 4328 5049 4336 C 4968 4357 4946 4346 4926 4275 C 4908 4215 4892 4145 4883 4092 C 4876 4047 4862 4056 4838 4120 C 4819 4174 4819 4177 4837 4294 C 4856 4418 4875 4465 4913 4479 C 4928 4485 4917 4487 4875 4486 C 4759 4484 4503 4592 4374 4697 C 4293 4763 4277 4783 4285 4810 C 4291 4828 4320 4828 4320 4810 z M 7606 4714 C 7630 4705 7650 4694 7650 4691 C 7650 4684 7518 4340 7445 4158 C 7423 4104 7403 4060 7399 4060 C 7396 4060 7390 4147 7386 4253 C 7382 4358 7371 4497 7361 4560 C 7340 4689 7339 4685 7411 4723 C 7452 4744 7465 4746 7510 4739 C 7539 4735 7582 4723 7606 4714 z M 6962 4628 C 6973 4587 6982 4574 7000 4570 C 7024 4564 7024 4564 6993 4551 C 6970 4542 6957 4541 6941 4550 C 6917 4562 6913 4590 6935 4590 C 6943 4590 6950 4595 6950 4600 C 6950 4606 6943 4613 6935 4616 C 6916 4624 6915 4680 6934 4680 C 6942 4680 6953 4658 6962 4628 z M 6885 4650 C 6888 4644 6879 4635 6865 4630 C 6831 4617 6830 4617 6830 4634 C 6830 4656 6873 4669 6885 4650 z M 7160 4637 C 7160 4607 7133 4582 7092 4574 C 7050 4566 7048 4593 7088 4614 C 7104 4622 7122 4636 7129 4644 C 7148 4667 7160 4664 7160 4637 z M 4556 4483 C 4599 4463 4675 4432 4724 4415 C 4824 4381 4821 4385 4804 4301 L 4797 4267 L 4771 4320 C 4736 4391 4696 4413 4615 4406 C 4582 4403 4538 4394 4518 4386 C 4497 4377 4476 4370 4470 4370 C 4464 4370 4460 4395 4460 4429 C 4460 4481 4466 4520 4475 4520 C 4477 4520 4513 4503 4556 4483 z M 5282 4472 C 5302 4452 5260 4446 5191 4459 C 5055 4485 5050 4489 5163 4486 C 5226 4484 5275 4479 5282 4472 z M 7898 4291 C 7942 4268 8001 4208 8024 4163 C 8033 4145 8047 4101 8055 4066 C 8069 4008 8069 3992 8056 3930 C 8015 3735 7848 3539 7676 3485 C 7621 3467 7528 3468 7486 3485 C 7470 3492 7468 3490 7473 3477 C 7476 3468 7475 3458 7470 3455 C 7453 3445 7416 3544 7412 3611 C 7404 3752 7493 3985 7623 4161 C 7726 4299 7807 4338 7898 4291 z M 5689 4186 C 5729 4165 6050 3840 6050 3820 C 6050 3805 5715 3460 5553 3308 C 5487 3245 5450 3233 5450 3274 C 5450 3289 5465 3311 5493 3335 C 5581 3414 5980 3802 5980 3810 C 5980 3817 5744 4008 5671 4059 C 5653 4072 5624 4083 5608 4084 C 5579 4085 5579 4085 5585 4130 C 5589 4155 5597 4181 5602 4188 C 5616 4204 5655 4203 5689 4186 z M 5173 4046 C 5176 4028 5191 3993 5206 3969 C 5258 3886 5230 3810 5152 3825 C 5116 3832 5080 3811 5080 3783 C 5080 3776 5071 3770 5059 3770 C 5041 3770 5039 3774 5045 3814 C 5051 3855 5050 3858 5026 3864 C 5012 3867 4993 3882 4984 3895 C 4957 3936 4979 3972 5058 4014 C 5095 4033 5131 4058 5138 4070 C 5154 4097 5166 4089 5173 4046 z M 4599 3934 C 4617 3893 4612 3810 4587 3759 C 4564 3713 4559 3711 4515 3730 C 4504 3735 4473 3746 4446 3756 C 4356 3789 4299 3873 4349 3900 C 4382 3917 4407 3911 4454 3875 L 4500 3840 L 4500 3871 C 4500 3953 4570 3998 4599 3934 z M 5700 3836 C 5700 3834 5689 3808 5676 3779 C 5663 3749 5650 3711 5646 3694 C 5640 3666 5633 3661 5580 3647 C 5547 3637 5511 3630 5499 3630 C 5479 3630 5478 3634 5484 3673 C 5488 3696 5496 3731 5502 3751 C 5512 3786 5516 3789 5579 3804 C 5615 3814 5652 3825 5660 3830 C 5675 3839 5700 3843 5700 3836 z M 7240 3681 C 7234 3669 7201 3637 7167 3608 C 7108 3559 7105 3558 7102 3580 C 7099 3597 7107 3610 7132 3629 C 7150 3643 7183 3675 7205 3699 C 7240 3737 7245 3740 7248 3722 C 7250 3710 7246 3692 7240 3681 z M 4796 3665 C 4927 3646 4956 3638 5083 3588 C 5252 3519 5324 3469 5354 3396 C 5374 3348 5374 3316 5351 3262 C 5315 3172 5232 3102 5121 3065 C 5017 3031 4847 3063 4712 3142 C 4635 3187 4541 3284 4500 3361 C 4470 3418 4467 3432 4467 3501 C 4468 3564 4466 3578 4454 3573 C 4434 3566 4436 3584 4458 3602 C 4487 3628 4542 3653 4600 3666 C 4674 3682 4671 3682 4796 3665 z M 7191 3541 C 7162 3485 7100 3449 7100 3488 C 7100 3506 7190 3591 7202 3583 C 7207 3581 7201 3562 7191 3541 z M 6900 3475 C 6908 3465 6909 3456 6904 3451 C 6873 3422 6530 3337 6513 3354 C 6496 3371 6552 3399 6643 3420 C 6696 3432 6768 3453 6803 3465 C 6880 3493 6885 3494 6900 3475 z M 6970 3405 C 6977 3396 6981 3388 6979 3387 C 6955 3368 6751 3301 6660 3281 C 6555 3258 6439 3239 6428 3242 C 6406 3250 6458 3289 6497 3295 C 6578 3307 6806 3366 6869 3391 C 6949 3423 6954 3424 6970 3405 z M 5885 3359 C 5951 3353 6048 3350 6102 3353 C 6191 3359 6200 3358 6200 3342 C 6200 3306 6179 3300 6060 3300 C 5956 3300 5729 3322 5690 3336 C 5668 3344 5719 3381 5745 3376 C 5756 3373 5819 3366 5885 3359 z M 7094 3318 C 7074 3259 7084 3211 7127 3161 C 7182 3096 7228 3077 7321 3082 C 7391 3085 7402 3088 7429 3114 C 7452 3136 7460 3140 7460 3128 C 7460 3092 7343 3029 7245 3012 C 7212 3006 7177 2999 7168 2995 C 7137 2983 7062 3104 7041 3202 C 7026 3272 7039 3332 7072 3348 C 7108 3365 7110 3363 7094 3318 z M 5800 3270 C 5841 3265 5943 3261 6027 3260 C 6110 3260 6181 3256 6184 3251 C 6188 3246 6187 3234 6183 3225 C 6177 3209 6161 3208 5996 3213 C 5841 3217 5615 3242 5601 3255 C 5599 3258 5603 3267 5611 3276 C 5625 3293 5622 3293 5800 3270 z M 6670 3166 C 6670 3147 6666 3144 6645 3148 C 6617 3153 6614 3160 6632 3178 C 6651 3197 6670 3192 6670 3166 z M 6330 3118 C 6330 3111 6321 3072 6311 3031 L 6293 2958 L 6368 2965 C 6410 2969 6455 2976 6468 2981 C 6481 2986 6502 2990 6515 2990 C 6528 2990 6545 2999 6552 3009 C 6560 3020 6583 3032 6604 3036 C 6643 3043 6643 3043 6636 3014 C 6624 2963 6581 2933 6499 2921 C 6458 2915 6397 2905 6364 2900 C 6276 2886 6230 2887 6224 2905 C 6218 2920 6245 3068 6261 3108 C 6267 3124 6278 3130 6300 3130 C 6317 3130 6330 3125 6330 3118 z M 6620 3100 C 6620 3077 6599 3065 6543 3055 C 6497 3048 6494 3052 6506 3098 C 6512 3117 6519 3120 6566 3120 C 6613 3120 6620 3117 6620 3100 z M 5920 2246 C 5920 2238 5916 2229 5911 2225 C 5899 2218 5887 2237 5895 2250 C 5904 2265 5920 2262 5920 2246 z M 6970 2220 C 7000 2165 7020 2071 7020 1986 C 7020 1907 7017 1891 6988 1833 C 6952 1759 6908 1718 6830 1688 C 6752 1658 6572 1658 6485 1689 C 6331 1744 6162 1892 6088 2035 C 6045 2118 6047 2151 6094 2115 C 6140 2080 6243 2056 6345 2056 C 6463 2056 6513 2069 6685 2145 C 6811 2201 6892 2229 6952 2239 C 6956 2239 6964 2231 6970 2220 z M 5923 2190 C 5926 2179 5924 2172 5919 2176 C 5914 2179 5910 2188 5910 2196 C 5910 2216 5917 2213 5923 2190 z M 5781 1934 C 5842 1903 5889 1740 5871 1618 C 5866 1583 5854 1538 5845 1517 C 5820 1457 5757 1396 5690 1366 C 5637 1342 5616 1338 5532 1338 C 5302 1338 5117 1463 4999 1699 C 4978 1742 4957 1792 4954 1810 C 4948 1838 4949 1842 4966 1837 C 5106 1794 5221 1805 5420 1880 C 5609 1951 5717 1968 5781 1934 z" stroke-linecap="round" />
</g>
<g transform="matrix(0.09 0 0 -0.09 786.37 690.62)"  >
<path style="stroke: none; stroke-width: 1; stroke-dasharray: none; stroke-linecap: butt; stroke-dashoffset: 0; stroke-linejoin: miter; stroke-miterlimit: 4; fill: rgb(0,0,0); fill-rule: nonzero; opacity: 1;" vector-effect="non-scaling-stroke"  transform=" translate(-8304.33, -4641.67)" d="M 8284 4785 C 8246 4769 8220 4734 8220 4700 L 8221 4675 L 8245 4703 C 8293 4757 8338 4756 8358 4700 C 8374 4655 8329 4570 8290 4570 C 8268 4570 8240 4601 8240 4626 C 8240 4636 8236 4652 8231 4659 C 8223 4671 8218 4670 8201 4649 C 8185 4631 8181 4613 8183 4580 C 8185 4542 8190 4532 8219 4513 C 8238 4500 8265 4490 8279 4490 C 8364 4490 8448 4621 8421 4710 C 8401 4777 8341 4810 8284 4785 z" stroke-linecap="round" />
</g>
<g transform="matrix(0.09 0 0 -0.09 614.73 518.47)"  >
<path style="stroke: none; stroke-width: 1; stroke-dasharray: none; stroke-linecap: butt; stroke-dashoffset: 0; stroke-linejoin: miter; stroke-miterlimit: 4; fill: rgb(0,0,0); fill-rule: nonzero; opacity: 1;" vector-effect="non-scaling-stroke"  transform=" translate(-6595.04, -6649.26)" d="M 7405 6899 C 7383 6876 7322 6829 7270 6793 C 7218 6758 7149 6707 7116 6680 C 6861 6467 6397 6411 5995 6545 C 5918 6571 5829 6611 5782 6640 C 5757 6656 5734 6667 5731 6665 C 5724 6658 5758 6612 5802 6570 C 5848 6526 5986 6454 6090 6419 C 6315 6345 6590 6340 6860 6406 C 7110 6468 7331 6614 7417 6775 C 7435 6808 7460 6894 7460 6923 C 7460 6949 7448 6944 7405 6899 z" stroke-linecap="round" />
</g>
</svg>